<?xml version="1.0" encoding="UTF-8"?>
<svg version="1.1" xmlns="http://www.w3.org/2000/svg" width="352" height="352">
<path d="M0 0 C1.07694122 -0.00281982 2.15388245 -0.00563965 3.26345825 -0.00854492 C5.05105057 -0.00550858 5.05105057 -0.00550858 6.87475586 -0.00241089 C8.12175262 -0.00416321 9.36874939 -0.00591553 10.65353394 -0.00772095 C14.08320565 -0.01137925 17.5128174 -0.01050596 20.94248581 -0.00734186 C24.52415805 -0.00481797 28.10582766 -0.00715588 31.6875 -0.00872803 C37.70337385 -0.01054964 43.71923543 -0.00814364 49.73510742 -0.00338745 C56.69982288 0.00205516 63.66450907 0.00029249 70.62922382 -0.00521386 C76.5986395 -0.00974523 82.56804635 -0.01039542 88.53746319 -0.00777519 C92.10726591 -0.00621255 95.67705485 -0.00601829 99.24685669 -0.00931168 C103.22439724 -0.01272461 107.20190475 -0.00800025 111.17944336 -0.00241089 C112.37117157 -0.00443512 113.56289978 -0.00645935 114.79074097 -0.00854492 C116.4061528 -0.00431519 116.4061528 -0.00431519 118.05419922 0 C118.99589462 0.00037703 119.93759003 0.00075405 120.90782166 0.0011425 C123.02709961 0.12698364 123.02709961 0.12698364 124.02709961 1.12698364 C124.12761836 3.92150635 124.16325854 6.69134719 124.15649414 9.48635864 C124.15912262 10.80090027 124.15912262 10.80090027 124.1618042 12.14199829 C124.16622393 15.05367992 124.1632843 17.96530134 124.15991211 20.87698364 C124.16058511 22.89098116 124.16155511 24.90497859 124.16281128 26.91897583 C124.16428842 31.1458717 124.16213319 35.37274647 124.1574707 39.59963989 C124.15177341 45.03078897 124.15505233 50.46188863 124.16104317 55.89303589 C124.16464835 60.05358251 124.16351039 64.21411733 124.16091537 68.37466431 C124.16024599 70.37783819 124.16107494 72.38101314 124.16339493 74.38418579 C124.16592076 77.17868916 124.16208185 79.97311135 124.15649414 82.76760864 C124.15851837 83.60400879 124.1605426 84.44040894 124.16262817 85.30215454 C124.14136203 91.01272122 124.14136203 91.01272122 123.02709961 92.12698364 C121.37184138 92.22527164 119.71237289 92.2533034 118.05419922 92.25396729 C116.977258 92.25678711 115.90031677 92.25960693 114.79074097 92.26251221 C113.59901276 92.26048798 112.40728455 92.25846375 111.17944336 92.25637817 C109.30894821 92.25900665 109.30894821 92.25900665 107.40066528 92.26168823 C103.97099357 92.26534653 100.54138182 92.26447325 97.11171341 92.26130915 C93.53004116 92.25878525 89.94837156 92.26112317 86.36669922 92.26269531 C80.35082537 92.26451692 74.33496378 92.26211092 68.3190918 92.25735474 C61.35437634 92.25191213 54.38969015 92.25367479 47.4249754 92.25918114 C41.45555972 92.26371252 35.48615287 92.2643627 29.51673603 92.26174247 C25.94693331 92.26017983 22.37714437 92.25998558 18.80734253 92.26327896 C14.82980198 92.26669189 10.85229447 92.26196754 6.87475586 92.25637817 C5.08716354 92.25941452 5.08716354 92.25941452 3.26345825 92.26251221 C1.64804642 92.25828247 1.64804642 92.25828247 0 92.25396729 C-0.9416954 92.25359026 -1.88339081 92.25321323 -2.85362244 92.25282478 C-4.97290039 92.12698364 -4.97290039 92.12698364 -5.97290039 91.12698364 C-6.07341914 88.33246094 -6.10905933 85.56262009 -6.10229492 82.76760864 C-6.10404724 81.89124756 -6.10579956 81.01488647 -6.10760498 80.11196899 C-6.11202471 77.20028737 -6.10908508 74.28866594 -6.10571289 71.37698364 C-6.10638589 69.36298613 -6.10735589 67.34898869 -6.10861206 65.33499146 C-6.1100892 61.10809559 -6.10793397 56.88122081 -6.10327148 52.65432739 C-6.09757419 47.22317832 -6.10085311 41.79207866 -6.10684395 36.3609314 C-6.11044913 32.20038477 -6.10931117 28.03984995 -6.10671616 23.87930298 C-6.10604677 21.87612909 -6.10687572 19.87295415 -6.10919571 17.86978149 C-6.11172154 15.07527812 -6.10788263 12.28085593 -6.10229492 9.48635864 C-6.10431915 8.6499585 -6.10634338 7.81355835 -6.10842896 6.95181274 C-6.08254948 0.00243526 -6.08254948 0.00243526 0 0 Z M5.02709961 28.12698364 C4.9232046 29.76812882 4.88857396 31.41371929 4.88183594 33.05813599 C4.87545609 34.10947723 4.86907623 35.16081848 4.86250305 36.24401855 C4.86139023 37.38875641 4.8602774 38.53349426 4.85913086 39.71292114 C4.85580246 40.88078156 4.85247406 42.04864197 4.8490448 43.25189209 C4.84397012 45.72848109 4.84163664 48.20507695 4.84179688 50.68167114 C4.83961302 54.47866053 4.82146999 58.27535833 4.80249023 62.07229614 C4.79955596 64.47333681 4.79757139 66.87437887 4.79663086 69.27542114 C4.78944534 70.41611053 4.78225983 71.55679993 4.77485657 72.73205566 C4.7779332 73.78970123 4.78100983 74.8473468 4.78417969 75.93704224 C4.78275467 76.8689035 4.78132965 77.80076477 4.77986145 78.76086426 C4.86961212 81.39474678 4.86961212 81.39474678 7.02709961 84.12698364 C8.95236414 84.57765494 8.95236414 84.57765494 11.20239258 84.50120544 C12.07732361 84.50821976 12.95225464 84.51523407 13.85369873 84.52246094 C15.29691498 84.51099533 15.29691498 84.51099533 16.76928711 84.4992981 C18.28646332 84.50477409 18.28646332 84.50477409 19.83428955 84.51036072 C23.19039502 84.51849196 26.54602156 84.50483454 29.90209961 84.49026489 C32.2261556 84.4897466 34.55021203 84.49026311 36.87426758 84.49177551 C41.75014776 84.49168567 46.625863 84.48123234 51.50170898 84.46316528 C57.76344735 84.44047783 64.0249445 84.4399328 70.28671265 84.44668293 C75.08726154 84.45001846 79.88775505 84.44340066 84.68829346 84.4335537 C86.99765737 84.42969423 89.30702744 84.42855655 91.61639404 84.43013954 C94.83935358 84.43050886 98.06199951 84.41792745 101.28491211 84.40164185 C102.24705627 84.40411926 103.20920044 84.40659668 104.20050049 84.40914917 C105.07543152 84.40206436 105.95036255 84.39497955 106.85180664 84.38768005 C107.61429718 84.38562718 108.37678772 84.38357431 109.16238403 84.38145924 C111.27237908 84.28503819 111.27237908 84.28503819 113.02709961 82.12698364 C113.3181367 80.22901626 113.3181367 80.22901626 113.25415039 78.04446411 C113.25399933 77.20374359 113.25384827 76.36302307 113.25369263 75.49682617 C113.24337006 74.58845001 113.23304749 73.68007385 113.22241211 72.74417114 C113.21816727 71.35006516 113.21816727 71.35006516 113.21383667 69.92779541 C113.2026203 66.95239514 113.17751321 63.97729329 113.15209961 61.00198364 C113.14207169 58.98766507 113.13294551 56.97334178 113.12475586 54.95901489 C113.10267622 50.01488908 113.06813654 45.07098699 113.02709961 40.12698364 C112.18945068 40.26845825 111.35180176 40.40993286 110.48876953 40.55569458 C104.07104728 41.59880933 97.84498531 42.47025649 91.33959961 42.37698364 C90.61466309 42.36876587 89.88972656 42.3605481 89.14282227 42.3520813 C76.13092436 42.08130338 65.40583945 37.28505446 53.63647461 32.24807739 C42.4713572 27.49748731 15.60866764 17.54541562 5.02709961 28.12698364 Z M70.02709961 28.12698364 C69.03709961 28.45698364 68.04709961 28.78698364 67.02709961 29.12698364 C67.02709961 29.78698364 67.02709961 30.44698364 67.02709961 31.12698364 C82.25337749 36.690909 97.50608287 36.80836751 113.02709961 32.12698364 C112.53209961 30.14698364 112.53209961 30.14698364 112.02709961 28.12698364 C98.60626747 23.62658484 83.38134796 23.170503 70.02709961 28.12698364 Z " fill="#355D84" transform="translate(117.972900390625,153.87301635742188)"/>
<path d="M0 0 C9.9 0 19.8 0 30 0 C31.65 3.3 33.3 6.6 35 10 C38.26478374 13.27001576 41.8073966 15.04558772 46 16.9375 C47.70736328 17.70900391 47.70736328 17.70900391 49.44921875 18.49609375 C52.87121945 19.94545598 56.31882392 21.23511844 59.8125 22.5 C68.17117505 25.67609486 73.57152675 29.53279254 78.28515625 37.16796875 C79 39 79 39 78 42 C36.42 42 -5.16 42 -48 42 C-49 39 -49 39 -48.1015625 36.94921875 C-42.39573639 28.20934225 -35.95092657 24.56717332 -26.25 21.0625 C-21.00681182 19.1610361 -15.85027394 17.21416294 -10.8125 14.8125 C-9.80832031 14.34457031 -8.80414063 13.87664062 -7.76953125 13.39453125 C-3.72910344 10.23837395 -3.72910344 10.23837395 0 0 Z " fill="#345E85" transform="translate(162,82)"/>
<path d="M0 0 C2.20911612 -0.00582882 4.41818421 -0.01553256 6.62728119 -0.02633667 C10.77309461 -0.04601124 14.91873752 -0.0484943 19.06459808 -0.04879761 C20.30486252 -0.05594284 21.54512695 -0.06308807 22.82297516 -0.07044983 C24.53622231 -0.06589531 24.53622231 -0.06589531 26.28408051 -0.06124878 C27.27655289 -0.0626738 28.26902527 -0.06409882 29.29157257 -0.06556702 C32.20215796 0.19802009 34.37805698 0.96590929 37.02162933 2.18167114 C36.7212574 8.18910975 34.04724517 11.94647878 30.02162933 16.18167114 C22.79788076 22.09471894 14.7301402 23.48705348 5.63710785 23.45632935 C4.44272095 23.46399574 4.44272095 23.46399574 3.22420502 23.47181702 C0.61623677 23.48561205 -1.99146423 23.48476404 -4.59946442 23.48245239 C-6.42735134 23.48634459 -8.25523737 23.49068034 -10.08312225 23.49543762 C-13.90508716 23.50287794 -17.72695966 23.50262427 -21.54892731 23.49734497 C-26.42880464 23.49155036 -31.30830241 23.50849182 -36.18811703 23.53168964 C-39.9603926 23.54647262 -43.73257768 23.54729254 -47.50487709 23.54417992 C-49.30327926 23.54469074 -51.10168682 23.54988323 -52.90006065 23.55999184 C-64.51234986 23.61726548 -74.68387655 23.60436181 -84.17758942 15.99417114 C-87.24776659 12.90401451 -89.59963924 9.32539946 -90.97837067 5.18167114 C-90.5230484 3.0473938 -90.5230484 3.0473938 -89.97837067 1.18167114 C-59.986599 0.50467809 -29.99920485 0.05993455 0 0 Z " fill="#335E87" transform="translate(203.9783706665039,274.8183288574219)"/>
<path d="M0 0 C1.67397102 -0.01073296 1.67397102 -0.01073296 3.38175964 -0.02168274 C5.2192704 -0.02571609 5.2192704 -0.02571609 7.09390259 -0.02983093 C9.02834984 -0.03968773 9.02834984 -0.03968773 11.00187683 -0.04974365 C15.27944702 -0.07076379 19.55701749 -0.08114252 23.83462524 -0.09111023 C25.30769494 -0.09515822 26.78076445 -0.09927516 28.25383377 -0.10346031 C35.17310662 -0.12250565 42.09236883 -0.13673937 49.01166284 -0.14507228 C56.99833922 -0.1548497 64.98473882 -0.18118487 72.97131765 -0.22157317 C79.14550525 -0.25172493 85.31961344 -0.26654016 91.49387324 -0.26985329 C95.18126563 -0.27220443 98.8683621 -0.28117294 102.55567551 -0.30631447 C106.66885593 -0.33390768 110.78141678 -0.32976701 114.89468384 -0.32279968 C116.11564255 -0.33560974 117.33660126 -0.3484198 118.59455872 -0.36161804 C126.82854574 -0.31064241 126.82854574 -0.31064241 130.87994385 2.02200317 C132.99412983 4.59864306 133.27098029 5.90276167 133.18618774 9.20967102 C133.18747681 10.06689758 133.18876587 10.92412415 133.19009399 11.80732727 C132.62368774 14.14717102 132.62368774 14.14717102 130.93936157 15.76918125 C128.08466957 17.46792497 126.31740628 17.52675759 123.00650024 17.53485107 C121.86245728 17.54475571 120.71841431 17.55466034 119.53970337 17.56486511 C118.28866821 17.56036346 117.03763306 17.55586182 115.74868774 17.55122375 C114.41469755 17.55692746 113.08071224 17.56389173 111.74673462 17.57202148 C108.12691328 17.58996688 104.50733416 17.58878217 100.88748169 17.5830791 C97.86548108 17.57998964 94.84352717 17.58607689 91.8215332 17.59211785 C84.69304524 17.60616559 77.56467711 17.60459937 70.43618774 17.59321594 C63.08110031 17.58173025 55.72637731 17.59581714 48.37133789 17.62261242 C42.05614655 17.64475831 35.74106971 17.65140946 29.42584229 17.64553601 C25.65413689 17.64216302 21.88266519 17.64460402 18.11099243 17.66178703 C14.56498796 17.67723699 11.01952421 17.67332313 7.47354126 17.65448189 C5.55157638 17.64903003 3.62958734 17.66332437 1.70767212 17.67817688 C-0.00839233 17.66342567 -0.00839233 17.66342567 -1.75912476 17.64837646 C-3.25016724 17.64806254 -3.25016724 17.64806254 -4.77133179 17.64774227 C-8.10056296 17.0079995 -9.29132939 15.76535058 -11.37631226 13.14717102 C-11.87240601 10.89326477 -11.87240601 10.89326477 -11.81381226 8.58467102 C-11.81252319 7.82025696 -11.81123413 7.0558429 -11.80990601 6.26826477 C-11.27388213 3.64609391 -10.47350868 2.77064778 -8.37631226 1.14717102 C-5.31074391 0.12531491 -3.21100335 0.01412431 0 0 Z " fill="#335D86" transform="translate(116.37631225585938,251.8528289794922)"/>
<path d="M0 0 C1.12858932 -0.00838898 2.25717865 -0.01677795 3.41996765 -0.02542114 C4.64870605 -0.01418213 5.87744446 -0.00294312 7.14341736 0.00863647 C8.44470078 0.00483978 9.74598419 0.00104309 11.08670044 -0.00286865 C14.64873064 -0.01254628 18.21025811 0.00272035 21.77222753 0.02303743 C25.5019441 0.04062948 29.23164565 0.03708295 32.96139526 0.03631592 C39.22332654 0.03818773 45.48506373 0.05553641 51.74693298 0.08285522 C58.98550582 0.11431852 66.22386626 0.12485087 73.46250254 0.12338412 C81.17187836 0.12203298 88.88117235 0.13591529 96.59052348 0.15427732 C98.81106487 0.15853867 101.03159304 0.1599595 103.25213814 0.16075516 C107.38917686 0.16313817 111.52596452 0.18256507 115.66294861 0.20394897 C116.89371124 0.2030426 118.12447388 0.20213623 119.39253235 0.20120239 C121.0811866 0.21399734 121.0811866 0.21399734 122.80395508 0.22705078 C124.2709263 0.23207831 124.2709263 0.23207831 125.7675333 0.23720741 C128.45315364 0.50595086 130.08055353 1.03668399 132.33848572 2.49447632 C133.50191798 4.82134085 133.5374456 6.34169045 133.58848572 8.93197632 C133.62715759 10.10566772 133.62715759 10.10566772 133.66661072 11.30307007 C133.33848572 13.49447632 133.33848572 13.49447632 132.23796082 15.10441589 C129.40688636 17.17623277 127.10020252 16.89544511 123.61875916 16.92684937 C122.93509844 16.93703252 122.25143772 16.94721567 121.54706001 16.95770741 C119.26391232 16.98804905 116.98118458 16.99714557 114.69786072 17.00619507 C113.07944925 17.02323263 111.46105059 17.0415285 109.84266663 17.06100464 C105.49214093 17.10942303 101.1416753 17.13913158 96.79096222 17.16463852 C93.19648506 17.18769897 89.60212979 17.22073054 86.0077343 17.25394154 C76.99761908 17.33710977 67.98749574 17.40042746 58.97714043 17.45065022 C53.4155697 17.4816569 47.85408368 17.5186771 42.29258728 17.56088257 C35.77475948 17.60969127 29.25697736 17.64559283 22.73899841 17.66870117 C20.39775938 17.67751699 18.05652888 17.68903143 15.71531677 17.70330811 C12.50368992 17.72082239 9.29234129 17.72507444 6.08067322 17.72494507 C5.15416962 17.7320752 4.22766602 17.73920532 3.27308655 17.74655151 C-2.251712 17.72688401 -6.55916029 17.59683031 -10.66151428 13.49447632 C-11.03260803 11.47103882 -11.03260803 11.47103882 -11.09901428 9.11947632 C-11.13897522 8.34861694 -11.17893616 7.57775757 -11.22010803 6.78353882 C-9.88990294 1.33248859 -5.04745541 -0.00562103 0 0 Z " fill="#325C82" transform="translate(115.66151428222656,130.50552368164063)"/>
<path d="M0 0 C1.67397102 -0.01073296 1.67397102 -0.01073296 3.38175964 -0.02168274 C5.2192704 -0.02571609 5.2192704 -0.02571609 7.09390259 -0.02983093 C9.02834984 -0.03968773 9.02834984 -0.03968773 11.00187683 -0.04974365 C15.27944702 -0.07076379 19.55701749 -0.08114252 23.83462524 -0.09111023 C25.30769494 -0.09515822 26.78076445 -0.09927516 28.25383377 -0.10346031 C35.17310662 -0.12250565 42.09236883 -0.13673937 49.01166284 -0.14507228 C56.99833922 -0.1548497 64.98473882 -0.18118487 72.97131765 -0.22157317 C79.14550525 -0.25172493 85.31961344 -0.26654016 91.49387324 -0.26985329 C95.18126563 -0.27220443 98.8683621 -0.28117294 102.55567551 -0.30631447 C106.66885593 -0.33390768 110.78141678 -0.32976701 114.89468384 -0.32279968 C116.11564255 -0.33560974 117.33660126 -0.3484198 118.59455872 -0.36161804 C126.8235322 -0.31067345 126.8235322 -0.31067345 130.88873291 2.01541138 C133.05344229 4.67521555 133.15897576 6.01079325 132.93618774 9.39717102 C132.89107056 10.28920227 132.84595337 11.18123352 132.79946899 12.10029602 C132.74146118 12.77576477 132.68345337 13.45123352 132.62368774 14.14717102 C131.96368774 14.47717102 131.30368774 14.80717102 130.62368774 15.14717102 C130.45566724 13.68899305 130.28931632 12.23062262 130.12368774 10.77217102 C130.03087524 9.96006165 129.93806274 9.14795227 129.84243774 8.31123352 C129.62368774 6.14717102 129.62368774 6.14717102 129.62368774 4.14717102 C128.96368774 4.14717102 128.30368774 4.14717102 127.62368774 4.14717102 C127.62368774 3.48717102 127.62368774 2.82717102 127.62368774 2.14717102 C111.22033772 2.25459131 94.8170347 2.3673845 78.41376591 2.48651028 C70.79682456 2.54170274 63.17987852 2.59516111 55.56289673 2.64448547 C48.92112664 2.68749923 42.27938908 2.73381934 35.6376695 2.78404957 C32.12350385 2.81051276 28.60934407 2.83536108 25.09514046 2.85624504 C21.16458972 2.87966536 17.23411502 2.91046991 13.30361938 2.94184875 C11.57083992 2.95048195 11.57083992 2.95048195 9.80305481 2.95928955 C3.66623009 3.01486213 -2.29030442 3.34746746 -8.37631226 4.14717102 C-8.37631226 7.77717102 -8.37631226 11.40717102 -8.37631226 15.14717102 C36.83368774 15.14717102 82.04368774 15.14717102 128.62368774 15.14717102 C128.62368774 15.80717102 128.62368774 16.46717102 128.62368774 17.14717102 C110.96061573 17.24058019 93.29760775 17.31113338 75.63434219 17.35441971 C67.43311561 17.37505183 59.23204243 17.40318471 51.03091431 17.44892883 C43.88344972 17.48877687 36.73609621 17.51459911 29.58852363 17.523525 C25.80329371 17.52874326 22.01838161 17.5410211 18.23325348 17.57009125 C14.67095546 17.59722855 11.10910635 17.60561964 7.54671478 17.59960175 C5.61512022 17.601228 3.68357462 17.62275972 1.75210571 17.64485168 C0.0273703 17.6366037 0.0273703 17.6366037 -1.73220825 17.62818909 C-2.73143185 17.63187626 -3.73065544 17.63556343 -4.76015854 17.63936234 C-8.10227455 17.01059176 -9.28711088 15.77484834 -11.37631226 13.14717102 C-11.87240601 10.89326477 -11.87240601 10.89326477 -11.81381226 8.58467102 C-11.81252319 7.82025696 -11.81123413 7.0558429 -11.80990601 6.26826477 C-11.27388213 3.64609391 -10.47350868 2.77064778 -8.37631226 1.14717102 C-5.31074391 0.12531491 -3.21100335 0.01412431 0 0 Z " fill="#3A5A79" transform="translate(116.37631225585938,251.8528289794922)"/>
<path d="M0 0 C1.61505556 -0.01654803 3.23003822 -0.04382344 4.84472656 -0.08203125 C7.17185491 -0.13683206 9.49726428 -0.15867769 11.82495117 -0.17333984 C12.54487747 -0.19600922 13.26480377 -0.21867859 14.00654602 -0.24203491 C17.73431714 -0.2263458 19.30791722 0.06211936 22.07836914 2.63574219 C24.14801011 6.28469054 24.09519691 9.52827509 23.93041992 13.60009766 C23.91591797 14.69837891 23.91591797 14.69837891 23.90112305 15.81884766 C23.78692714 21.18109044 23.78692714 21.18109044 22.61791992 22.35009766 C19.67256422 22.45120119 16.75114432 22.48979045 13.80541992 22.48291016 C12.47933716 22.48434525 12.47933716 22.48434525 11.12646484 22.48580933 C9.25349863 22.48649117 7.38053006 22.48463659 5.50756836 22.48046875 C2.63023605 22.47512055 -0.24694016 22.48041359 -3.12426758 22.48681641 C-4.93937209 22.48615563 -6.75447651 22.48487446 -8.56958008 22.48291016 C-9.43623291 22.48493439 -10.30288574 22.48695862 -11.19580078 22.48904419 C-17.26712998 22.46504775 -17.26712998 22.46504775 -18.38208008 21.35009766 C-18.53631257 18.91796993 -18.61374754 16.53374198 -18.63208008 14.10009766 C-18.65270508 13.43107422 -18.67333008 12.76205078 -18.69458008 12.07275391 C-18.72957417 7.61975532 -18.04067675 4.92174773 -15.38208008 1.35009766 C-12.70273422 -1.3292482 -3.77273971 0.02835782 0 0 Z M-12.38208008 4.35009766 C-15.07669993 8.39202744 -14.61408897 10.55524725 -14.38208008 15.35009766 C-13.247002 16.71221586 -13.247002 16.71221586 -10.23925781 16.46362305 C-8.8480531 16.46346398 -7.45684247 16.45777272 -6.06567383 16.44775391 C-4.96909203 16.44563148 -4.96909203 16.44563148 -3.85035706 16.44346619 C-1.50672376 16.43785174 0.83681531 16.42529687 3.18041992 16.41259766 C4.765705 16.40758451 6.35099158 16.40302129 7.9362793 16.39892578 C11.83019602 16.38787762 15.72404198 16.37060337 19.61791992 16.35009766 C19.61791992 12.72009766 19.61791992 9.09009766 19.61791992 5.35009766 C15.30456091 3.19341815 9.55069813 4.12312911 4.75952148 4.10986328 C2.62599033 4.10013446 0.49341336 4.0691001 -1.63989258 4.03759766 C-2.99144935 4.03106975 -4.34301301 4.02581844 -5.69458008 4.02197266 C-6.92821289 4.01262695 -8.1618457 4.00328125 -9.43286133 3.99365234 C-10.40610352 4.1112793 -11.3793457 4.22890625 -12.38208008 4.35009766 Z " fill="#375777" transform="translate(174.382080078125,53.64990234375)"/>
<path d="M0 0 C4.18089192 -0.04961351 8.36162566 -0.08582016 12.54272461 -0.10986328 C13.96365343 -0.11989146 15.38456178 -0.13351741 16.80541992 -0.15087891 C18.85340444 -0.17526821 20.90111498 -0.1865149 22.94921875 -0.1953125 C24.17987061 -0.20578613 25.41052246 -0.21625977 26.6784668 -0.22705078 C29.90285303 -0.0066407 32.10634881 0.61200798 35 2 C34.69962807 8.00743861 32.02561584 11.76480764 28 16 C20.77625143 21.9130478 12.70851087 23.30538234 3.61547852 23.2746582 C2.42109161 23.2823246 2.42109161 23.2823246 1.20257568 23.29014587 C-1.40539256 23.30394091 -4.01309357 23.3030929 -6.62109375 23.30078125 C-8.44898068 23.30467345 -10.27686671 23.3090092 -12.10475159 23.31376648 C-15.9267165 23.3212068 -19.74858899 23.32095313 -23.57055664 23.31567383 C-28.45043397 23.30987922 -33.32993174 23.32682067 -38.20974636 23.3500185 C-41.98202193 23.36480147 -45.75420701 23.36562139 -49.52650642 23.36250877 C-51.3249086 23.3630196 -53.12331615 23.36821209 -54.92168999 23.37832069 C-76.99644472 23.48719688 -76.99644472 23.48719688 -85 16 C-84.67 15.01 -84.34 14.02 -84 13 C-83.01 13.33 -82.02 13.66 -81 14 C-79.8125 16.5625 -79.8125 16.5625 -79 19 C-73.90385087 19.83761651 -68.95628328 20.14846888 -63.7890625 20.14526367 C-62.99949158 20.14862228 -62.20992065 20.1519809 -61.39642334 20.15544128 C-58.80593257 20.16488208 -56.21550686 20.16689066 -53.625 20.16796875 C-51.81331354 20.17118519 -50.00162733 20.17454955 -48.18994141 20.17805481 C-44.40071002 20.18402821 -40.61150139 20.18589646 -36.82226562 20.18530273 C-31.97700068 20.185201 -27.1318819 20.19887261 -22.28665161 20.21607494 C-18.54792617 20.22721295 -14.80923594 20.22922142 -11.07049561 20.22869301 C-9.28439834 20.22986966 -7.49830007 20.23427368 -5.71221924 20.24202538 C-3.21168857 20.2518654 -0.71147367 20.2489319 1.7890625 20.24291992 C2.51965881 20.24853943 3.25025513 20.25415894 4.00299072 20.25994873 C9.42279244 20.22697646 14.12554684 19.43722658 19 17 C19.66 17.33 20.32 17.66 21 18 C20.505 16.515 20.505 16.515 20 15 C20.78375 14.9175 21.5675 14.835 22.375 14.75 C25.14749104 14.27193661 25.14749104 14.27193661 26.3125 11.9375 C26.539375 11.298125 26.76625 10.65875 27 10 C27.99 10 28.98 10 30 10 C29.505 7.525 29.505 7.525 29 5 C28.34 5 27.68 5 27 5 C27 4.34 27 3.68 27 3 C18.09 2.67 9.18 2.34 0 2 C0 1.34 0 0.68 0 0 Z " fill="#3F5D7A" transform="translate(206,275)"/>
<path d="M0 0 C42.24 0 84.48 0 128 0 C128 0.66 128 1.32 128 2 C127.37769721 2.00331015 126.75539442 2.00662029 126.11423397 2.01003075 C110.95680998 2.09132913 95.79949338 2.18344388 80.64221096 2.28752708 C73.31219497 2.33760186 65.98218987 2.38404527 58.65209961 2.421875 C52.26155283 2.45486514 45.87109189 2.49473492 39.48063999 2.54279006 C36.09843496 2.56798543 32.71628636 2.58978702 29.33401299 2.60334396 C25.55384913 2.62022683 21.77395945 2.64926785 17.99389648 2.68115234 C16.87827332 2.68331253 15.76265015 2.68547272 14.61322021 2.68769836 C9.02341377 2.74792298 4.27897618 3.11888754 -1 5 C-0.67 3.35 -0.34 1.7 0 0 Z " fill="#425F79" transform="translate(113,154)"/>
<path d="M0 0 C0.495 0.99 0.495 0.99 1 2 C3.33010909 2.67784992 5.66359824 3.34416793 8 4 C8.66 4.66 9.32 5.32 10 6 C12.93008319 6.83557723 12.93008319 6.83557723 16 7 C16.99 6.34 17.98 5.68 19 5 C21.73990408 5.03143293 24.28417854 5.55478337 27 6 C26 8 25 10 24 12 C26.31 12 28.62 12 31 12 C30.01 13.485 30.01 13.485 29 15 C21.10605383 13.10960257 13.98483297 10.38996107 6.625 7 C-9.40828185 -0.12732584 -23.47231114 -2.80805351 -41 0 C-41 -0.99 -41 -1.98 -41 -3 C-27.12199392 -6.70080162 -13.39066582 -5.17456408 0 0 Z " fill="#385B7B" transform="translate(167,181)"/>
<path d="M0 0 C0.66 0.66 1.32 1.32 2 2 C0.75 4.9375 0.75 4.9375 -1 8 C-3.125 8.75 -3.125 8.75 -5 9 C-5.33 9.66 -5.66 10.32 -6 11 C-7.98 11 -9.96 11 -12 11 C-12 11.66 -12 12.32 -12 13 C-16.47365049 15.08076767 -20.8677809 16.54665051 -25.625 17.875 C-30.91823399 19.44538672 -33.50794655 20.83206524 -37 25 C-39.3125 25.8125 -39.3125 25.8125 -41 26 C-39.36791846 21.10375537 -35.42084707 19.37555347 -31 17 C-27.74588621 15.70110347 -24.47862757 14.49975411 -21.17895508 13.32543945 C-9.4601872 9.46935043 -9.4601872 9.46935043 -0.6484375 1.7890625 C-0.43445313 1.19867188 -0.22046875 0.60828125 0 0 Z " fill="#3D5C7A" transform="translate(159,89)"/>
<path d="M0 0 C-0.33 0.66 -0.66 1.32 -1 2 C-3.48054722 2.23839809 -5.88879646 2.37019876 -8.375 2.4375 C-14.45217056 2.69170401 -19.85307284 3.46502712 -25.66796875 5.37890625 C-28.20024547 6.05333171 -30.39109673 6.10658042 -33 6 C-23.92289115 -1.55367799 -11.11465466 -0.3555636 0 0 Z " fill="#3A5B79" transform="translate(216,177)"/>
<path d="M0 0 C0.91848119 2.75544358 1.08426974 4.24473058 1 7.0625 C0.70651608 10.78571015 0.70651608 10.78571015 2 13 C1.01 13 0.02 13 -1 13 C-1.33 14.32 -1.66 15.64 -2 17 C-2.66 17 -3.32 17 -4 17 C-4 12.05 -4 7.1 -4 2 C-2.68 2 -1.36 2 0 2 C0 1.34 0 0.68 0 0 Z " fill="#435D81" transform="translate(160,58)"/>
<path d="M0 0 C0.99 0.33 1.98 0.66 3 1 C2.01 1.66 1.02 2.32 0 3 C-0.36362818 5.20725073 -0.36362818 5.20725073 -0.1875 7.625 C-0.125625 9.06875 -0.06375 10.5125 0 12 C4.455 12.99 4.455 12.99 9 14 C9 14.66 9 15.32 9 16 C7.56138706 15.91253716 6.12402492 15.80434652 4.6875 15.6875 C3.88699219 15.62949219 3.08648437 15.57148438 2.26171875 15.51171875 C-0.45204294 14.89772431 -1.39812177 14.26297083 -3 12 C-3.3984375 9.84375 -3.3984375 9.84375 -3.375 7.5 C-3.38273437 6.7265625 -3.39046875 5.953125 -3.3984375 5.15625 C-2.91655268 2.54840272 -2.01270624 1.66128134 0 0 Z " fill="#3C5D7A" transform="translate(108,132)"/>
<path d="M0 0 C3 1 3 1 4 3 C4.203125 5.05859375 4.203125 5.05859375 4.25 7.4375 C4.28867188 8.61119141 4.28867188 8.61119141 4.328125 9.80859375 C4 12 4 12 2.68359375 13.7734375 C0.18047116 15.59705814 -1.99648259 15.20023449 -5 15 C-5 14.34 -5 13.68 -5 13 C-3.35 13 -1.7 13 0 13 C0.19551338 11.39679026 0.38111983 9.79237014 0.5625 8.1875 C0.66691406 7.29417969 0.77132812 6.40085938 0.87890625 5.48046875 C1.15658709 2.86624428 1.15658709 2.86624428 0 0 Z " fill="#3D607E" transform="translate(245,132)"/>
<path d="M0 0 C0.66 0.66 1.32 1.32 2 2 C0.75 4.9375 0.75 4.9375 -1 8 C-3.125 8.75 -3.125 8.75 -5 9 C-5.33 9.66 -5.66 10.32 -6 11 C-7.65 11 -9.3 11 -11 11 C-11.33 10.34 -11.66 9.68 -12 9 C-11.30132812 8.68546875 -10.60265625 8.3709375 -9.8828125 8.046875 C-8.97273437 7.61890625 -8.06265625 7.1909375 -7.125 6.75 C-6.22007812 6.33234375 -5.31515625 5.9146875 -4.3828125 5.484375 C-1.80027811 3.87558308 -1.04392814 2.80780672 0 0 Z " fill="#385978" transform="translate(159,89)"/>
<path d="M0 0 C5.96564796 0.50771472 10.63809899 2.38592128 16 5 C15.01 6.485 15.01 6.485 14 8 C14 7.34 14 6.68 14 6 C12.989375 5.9175 11.97875 5.835 10.9375 5.75 C6.62213084 5.15993932 3.65261803 3.31083998 0 1 C0 0.67 0 0.34 0 0 Z " fill="#3A5879" transform="translate(214,103)"/>
<path d="M0 0 C4.02792802 0.92066926 5.68463941 2.59367221 7.875 5.9375 C9.1796875 8.02734375 9.1796875 8.02734375 10 10 C9.67 10.99 9.34 11.98 9 13 C8.01 12.67 7.02 12.34 6 12 C5.855625 11.236875 5.71125 10.47375 5.5625 9.6875 C5.0367406 6.91827092 5.0367406 6.91827092 4 4 C3.01 4 2.02 4 1 4 C0.67 2.68 0.34 1.36 0 0 Z " fill="#3E5C77" transform="translate(231,111)"/>
<path d="M0 0 C0.66 0 1.32 0 2 0 C2.28875 1.0725 2.5775 2.145 2.875 3.25 C3.72820109 6.09400364 4.5636503 8.43508983 6 11 C4.1875 10.875 4.1875 10.875 2 10 C-1.146948 5.11680482 -1.146948 5.11680482 -0.6875 1.625 C-0.460625 1.08875 -0.23375 0.5525 0 0 Z " fill="#3C597A" transform="translate(114,276)"/>
<path d="M0 0 C3.3 0.66 6.6 1.32 10 2 C10 2.33 10 2.66 10 3 C7.36 3.33 4.72 3.66 2 4 C2 4.66 2 5.32 2 6 C0.68 6.33 -0.64 6.66 -2 7 C-1.34 4.69 -0.68 2.38 0 0 Z " fill="#355879" transform="translate(162,82)"/>
<path d="M0 0 C5.26053037 -0.31563182 8.44573816 0.33409063 13 3 C12.67 3.66 12.34 4.32 12 5 C6.06 3.515 6.06 3.515 0 2 C0 1.34 0 0.68 0 0 Z " fill="#385975" transform="translate(218,178)"/>
<path d="M0 0 C4.29 0.66 8.58 1.32 13 2 C12.01 3.485 12.01 3.485 11 5 C7.37 4.01 3.74 3.02 0 2 C0 1.34 0 0.68 0 0 Z " fill="#385576" transform="translate(185,191)"/>
<path d="M0 0 C-1 2 -1 2 -3.375 2.875 C-6.36928042 4.15826304 -7.10407039 5.44461662 -9 8 C-11.1875 8.75 -11.1875 8.75 -13 9 C-11.7986165 5.39584951 -10.73856012 4.85293989 -7.625 2.8125 C-6.83351563 2.28269531 -6.04203125 1.75289063 -5.2265625 1.20703125 C-3 0 -3 0 0 0 Z " fill="#456483" transform="translate(131,106)"/>
<path d="M0 0 C0 0.99 0 1.98 0 3 C-1.98 3.33 -3.96 3.66 -6 4 C-6.33 3.01 -6.66 2.02 -7 1 C-4.50935112 0.31292445 -2.62113708 0 0 0 Z " fill="#37567A" transform="translate(230,186)"/>
<path d="M0 0 C0.66 0.33 1.32 0.66 2 1 C1.34 3.31 0.68 5.62 0 8 C-0.99 7.67 -1.98 7.34 -3 7 C-1.125 1.125 -1.125 1.125 0 0 Z " fill="#42607D" transform="translate(116,116)"/>
<path d="M0 0 C3.96 1.98 3.96 1.98 8 4 C8 4.66 8 5.32 8 6 C4.65750371 5.40312566 2.53563658 4.26396123 0 2 C0 1.34 0 0.68 0 0 Z " fill="#3E5C7A" transform="translate(198,94)"/>
<path d="" fill="#D5D5D5" transform="translate(0,0)"/>
</svg>
