<?xml version="1.0" encoding="UTF-8"?>
<svg version="1.1" xmlns="http://www.w3.org/2000/svg" width="499" height="499">
<path d="M0 0 C0 37.62 0 75.24 0 114 C-6.28882157 113.10159692 -7.88136985 112.77111787 -12.6875 109.5 C-20.10812252 104.98269604 -27.04166768 104.13730741 -35.5625 105.5625 C-40.26512413 106.80228273 -44.29789119 109.20869498 -48.5 111.6015625 C-54.41598822 114.91081841 -60.28772257 116.13056656 -66.9375 114.53515625 C-70.9552311 113.16621158 -74.22231425 111.21927679 -77.75 108.875 C-84.51984296 104.69454398 -91.7331549 104.26404635 -99.5 105.5 C-103.42496521 106.51495484 -106.50609042 108.43371469 -109.9375 110.5625 C-116.61688643 114.63633162 -122.29444665 115.88614403 -130 114.4375 C-135.14073468 112.92675348 -139.5203414 109.85599052 -144 107 C-150.95742549 103.52128726 -160.81518311 104.6686837 -168 107 C-169.485 107.99 -169.485 107.99 -171 109 C-171.99 109 -172.98 109 -174 109 C-174 109.66 -174 110.32 -174 111 C-178.63214543 113.64694025 -180.34968203 114 -186 114 C-186 76.38 -186 38.76 -186 0 C-140.52026494 -0.29107747 -140.52026494 -0.29107747 -121.5 -0.40429688 C-108.35349504 -0.48260058 -95.20700267 -0.56198007 -82.06054688 -0.64819336 C-72.48716948 -0.71096988 -62.91377785 -0.77017252 -53.34035182 -0.82505554 C-48.26973934 -0.85425016 -43.19915227 -0.88525338 -38.12857819 -0.92053413 C-33.35823507 -0.95366949 -28.58788761 -0.98203447 -23.81749344 -1.00670624 C-22.06470018 -1.01661865 -20.31191586 -1.02828911 -18.55914688 -1.04183006 C-16.16957739 -1.06003012 -13.78005645 -1.07195564 -11.39044189 -1.08229065 C-10.69394067 -1.08909444 -9.99743945 -1.09589823 -9.27983212 -1.10290819 C-5.92195685 -1.11071437 -3.29813639 -0.8245341 0 0 Z " fill="#32547D" transform="translate(344,218)"/>
<path d="M0 0 C0.64195312 0.43570312 1.28390625 0.87140625 1.9453125 1.3203125 C8.26642422 5.41480952 15.39054893 6.41069219 22.78125 5.30078125 C28.53624088 3.93568956 33.85469328 1.55071777 38.9453125 -1.4296875 C44.11426072 -4.42767747 49.07496638 -5.25903912 55.01953125 -3.74609375 C58.68821035 -2.47034483 61.78504023 -0.84099112 65.0078125 1.3203125 C72.34492146 6.05439255 79.64072921 6.26154605 88.0703125 4.7578125 C91.90405432 3.83771446 94.73896422 2.38287639 98.0078125 0.2578125 C103.86639139 -3.51079897 110.08594992 -5.27040605 117.0703125 -4.2421875 C121.85833117 -2.80207026 126.05906309 -0.9298371 130.1953125 1.8828125 C133.79777098 4.23224194 136.88586736 4.83581611 141.0703125 5.7578125 C142.0703125 6.7578125 142.0703125 6.7578125 142.16796875 10.13671875 C142.16129619 11.53128327 142.14933782 12.92582993 142.1328125 14.3203125 C142.12830078 15.03123047 142.12378906 15.74214844 142.11914062 16.47460938 C142.10732114 18.23571263 142.08938513 19.99677286 142.0703125 21.7578125 C142.9984375 22.0053125 143.9265625 22.2528125 144.8828125 22.5078125 C148.3251688 23.85775615 149.40173274 24.51648358 151.0703125 27.7578125 C151.73941817 31.81147768 151.68055146 35.69694962 151.0703125 39.7578125 C148.85468088 42.73142336 147.33111665 44.12741043 144.0703125 45.7578125 C141.5753356 45.86197225 139.10787482 45.90561039 136.61235046 45.90498352 C135.83421094 45.90866021 135.05607142 45.9123369 134.25435191 45.916125 C131.63269613 45.92718609 129.01107995 45.93100976 126.3894043 45.93481445 C124.51547112 45.94107723 122.6415392 45.94772386 120.76760864 45.95472717 C115.6663187 45.97215316 110.56503815 45.9826931 105.46372581 45.9909327 C102.27864464 45.99607902 99.09356641 46.00215489 95.90848732 46.00844383 C85.94897853 46.02749959 75.98947718 46.04173042 66.02995366 46.0500558 C54.52230379 46.05983338 43.014846 46.08616493 31.50726384 46.12655669 C22.61974378 46.1566847 13.73227889 46.17152149 4.84470874 46.17483681 C-0.46686292 46.17719092 -5.77822946 46.18619821 -11.08974648 46.21129799 C-16.08595137 46.234526 -21.08181532 46.23883321 -26.07806015 46.22853661 C-27.91267593 46.22803986 -29.74730819 46.23440092 -31.58187294 46.24809265 C-34.08525156 46.26573177 -36.587396 46.25874548 -39.09077454 46.24555969 C-39.81801721 46.25652894 -40.54525989 46.26749818 -41.29454023 46.27879983 C-46.1065362 46.21754147 -48.551483 45.17179115 -51.9296875 41.7578125 C-53.33751877 38.94214995 -53.1373689 36.5214418 -53.1796875 33.3828125 C-53.20546875 32.24070312 -53.23125 31.09859375 -53.2578125 29.921875 C-52.89549678 26.42811623 -52.54910387 25.08006819 -49.9296875 22.7578125 C-47.9496875 22.4278125 -45.9696875 22.0978125 -43.9296875 21.7578125 C-43.9296875 16.8078125 -43.9296875 11.8578125 -43.9296875 6.7578125 C-41.9496875 6.0978125 -39.9696875 5.4378125 -37.9296875 4.7578125 C-34.2879747 3.32713961 -31.15832655 1.91500185 -27.9296875 -0.3046875 C-18.98148471 -6.08373513 -8.78141044 -5.65281077 0 0 Z " fill="#365880" transform="translate(201.9296875,335.2421875)"/>
<path d="M0 0 C14.85 0 29.7 0 45 0 C46.32 3.96 47.64 7.92 49 12 C52.56708722 17.64053544 56.64959367 19.6549092 62.625 22.0625 C64.24234851 22.74571273 65.85953658 23.42930537 67.4765625 24.11328125 C68.25547852 24.43635254 69.03439453 24.75942383 69.83691406 25.09228516 C72.58868053 26.2470332 75.29483186 27.49043031 78 28.75 C81.29464467 30.2667419 84.60116371 31.61105775 88 32.875 C100.54760721 37.8500863 108.19110244 44.90235465 114.21484375 56.765625 C115 59 115 59 114 62 C53.94 62 -6.12 62 -68 62 C-69.31999485 58.04001544 -68.33101664 56.93071712 -66.5 53.25 C-58.76730447 38.69433782 -45.17754622 33.77048464 -30.3046875 28.28125 C-26.48802734 26.80150469 -22.77581263 25.15747976 -19.0625 23.4375 C-18.44753662 23.15640381 -17.83257324 22.87530762 -17.19897461 22.58569336 C-8.87252207 18.7232582 -8.87252207 18.7232582 -3 12 C-2.37787369 9.71887018 -1.87603582 7.4428881 -1.4296875 5.12109375 C-1 3 -1 3 0 0 Z " fill="#30527C" transform="translate(228,115)"/>
<path d="M0 0 C60.06 0 120.12 0 182 0 C183.4117581 7.05879051 180.64268 11.01502022 177 17 C175.11464525 19.38870473 173.37423169 21.0574468 171 23 C170.34 23 169.68 23 169 23 C169 23.66 169 24.32 169 25 C167.42578125 26.21875 167.42578125 26.21875 165.3125 27.5 C164.62800781 27.9228125 163.94351563 28.345625 163.23828125 28.78125 C157.56142946 31.87231066 152.95955147 32.34389273 146.58984375 32.44921875 C145.62633499 32.47154572 144.66282623 32.49387268 143.67012024 32.51687622 C140.42602022 32.58631979 137.18197095 32.63853627 133.9375 32.6875 C132.81460571 32.70646332 131.69171143 32.72542664 130.53479004 32.7449646 C109.48439333 33.08520382 88.43256695 33.04965554 67.38088989 32.85684204 C63.96770254 32.82562289 60.55461972 32.80273987 57.1413269 32.78695679 C53.0718048 32.76701495 49.0029562 32.72674455 44.93376732 32.67132187 C43.4267618 32.65371563 41.91966424 32.64257725 40.41256142 32.63849258 C32.22535172 32.61059518 25.18555363 32.31240764 18 28 C17.21367187 27.53078125 16.42734375 27.0615625 15.6171875 26.578125 C7.26986545 20.21469564 1.31261516 13.52579988 -1 3 C-0.67 2.01 -0.34 1.02 0 0 Z " fill="#30537C" transform="translate(160,389)"/>
<path d="M0 0 C0.7888699 -0.00709439 1.5777398 -0.01418877 2.39051485 -0.02149814 C5.0309821 -0.03908495 7.66997863 -0.02097076 10.3104248 -0.00291443 C12.2045102 -0.008053 14.09859081 -0.01533381 15.99266052 -0.02459717 C21.1352779 -0.04312723 26.27737748 -0.03016236 31.41997337 -0.01050687 C36.80017077 0.00586762 42.18033506 -0.00293159 47.56054688 -0.00802612 C56.59590942 -0.01254841 65.63106504 0.00333124 74.66638184 0.03126526 C85.11441106 0.0633177 95.56206705 0.06330182 106.01012278 0.04605049 C116.05830474 0.03019011 126.10634979 0.03691584 136.15452576 0.0539875 C140.43195741 0.06086248 144.70927947 0.05982094 148.98670959 0.05244255 C154.02323778 0.04478491 159.0593409 0.05688896 164.09579659 0.08429146 C165.94490357 0.09118182 167.79405021 0.09126629 169.64315605 0.08407593 C172.16614385 0.07539518 174.68781567 0.09131296 177.21069336 0.11352539 C177.94367157 0.10528462 178.67664979 0.09704386 179.43183947 0.08855337 C184.25417451 0.166996 186.71934259 1.20331978 190.10534668 4.62818909 C192.19074821 8.79899215 191.55961782 14.08547773 191.10534668 18.62818909 C189.29731264 21.70184695 188.24495204 23.05838641 185.10534668 24.62818909 C182.59305919 24.72587902 180.10851071 24.76275508 177.59596252 24.75517273 C176.42051122 24.75751272 176.42051122 24.75751272 175.22131342 24.75989997 C172.5811579 24.76390596 169.94105933 24.76072186 167.30090332 24.75758362 C165.41387396 24.75893785 163.52684487 24.7607179 161.63981628 24.76289368 C156.50352689 24.76746574 151.36725752 24.76567929 146.23096776 24.76251459 C140.86450346 24.75998946 135.49804091 24.76232899 130.13157654 24.76390076 C121.11705212 24.76572216 112.10253588 24.76331707 103.0880127 24.75856018 C92.65658826 24.75311927 82.22518337 24.7548791 71.79375941 24.76038659 C62.84937086 24.76492051 53.90498821 24.76556684 44.96059889 24.76294792 C39.61340383 24.76138648 34.26621798 24.76118773 28.91902351 24.76448441 C23.89172638 24.76736711 18.86445451 24.76538003 13.83716011 24.75959015 C11.98881573 24.75826463 10.14046924 24.75865315 8.2921257 24.76085281 C5.77529297 24.76357249 3.25854195 24.76017306 0.74171448 24.75517273 C0.00475517 24.75740345 -0.73220414 24.75963417 -1.49149555 24.76193249 C-4.57148436 24.7500079 -6.94811244 24.61036938 -9.89465332 23.62818909 C-9.89465332 22.96818909 -9.89465332 22.30818909 -9.89465332 21.62818909 C-10.55465332 21.62818909 -11.21465332 21.62818909 -11.89465332 21.62818909 C-13.35489702 18.7077017 -13.18111885 16.06762825 -13.26965332 12.81568909 C-13.3186377 11.59236877 -13.36762207 10.36904846 -13.41809082 9.10865784 C-12.26009914 1.40887736 -6.98511274 -0.11279175 0 0 Z " fill="#355780" transform="translate(161.8946533203125,184.37181091308594)"/>
<path d="M0 0 C1.44709099 -0.01913956 1.44709099 -0.01913956 2.92341614 -0.03866577 C3.96922348 -0.04089142 5.01503082 -0.04311707 6.0925293 -0.04541016 C7.7019062 -0.05539536 7.7019062 -0.05539536 9.34379578 -0.06558228 C11.61768882 -0.07572266 13.89161171 -0.08039887 16.16552734 -0.08007812 C19.64234702 -0.08444203 23.11788831 -0.12072279 26.59448242 -0.15869141 C28.80216037 -0.16456111 31.00984435 -0.16852947 33.2175293 -0.17041016 C34.25726395 -0.18478119 35.2969986 -0.19915222 36.36824036 -0.21395874 C40.8365478 -0.18573547 43.58382916 -0.15886872 47.5 2.12548828 C51.80649066 7.15379101 50.50672616 15.33640253 50.47924805 21.66552734 C50.48504883 23.03644531 50.48504883 23.03644531 50.4909668 24.43505859 C50.48967773 25.30259766 50.48838867 26.17013672 50.48706055 27.06396484 C50.48593262 27.85206543 50.48480469 28.64016602 50.48364258 29.45214844 C50.35424805 31.29052734 50.35424805 31.29052734 49.35424805 32.29052734 C47.7791447 32.37863508 46.20009709 32.39744798 44.62255859 32.38818359 C43.61448654 32.38488037 42.60641449 32.38157715 41.5677948 32.37817383 C40.46994156 32.36987549 39.37208832 32.36157715 38.2409668 32.35302734 C37.11987015 32.34924072 35.9987735 32.3454541 34.84370422 32.34155273 C30.02596679 32.32513717 25.20831254 32.29707976 20.390625 32.27001953 C16.88240957 32.25196167 13.3742079 32.23984654 9.8659668 32.22802734 C8.22829597 32.21557983 8.22829597 32.21557983 6.55754089 32.20288086 C5.54001236 32.19957764 4.52248383 32.19627441 3.47412109 32.19287109 C2.58001022 32.18763428 1.68589935 32.18239746 0.76469421 32.17700195 C-1.63123035 32.2073004 -1.63123035 32.2073004 -3.82511902 32.85522461 C-6.33009674 33.4541502 -7.50493752 32.59030753 -9.64575195 31.29052734 C-9.73307921 27.39483599 -9.78625381 23.49939752 -9.83325195 19.60302734 C-9.85838867 18.50023438 -9.88352539 17.39744141 -9.90942383 16.26123047 C-9.9190918 15.19453125 -9.92875977 14.12783203 -9.9387207 13.02880859 C-9.95443115 12.04952393 -9.9701416 11.07023926 -9.98632812 10.0612793 C-9.23347637 3.93646602 -6.15561928 0.05514724 0 0 Z M-2.64575195 8.29052734 C-2.64575195 12.91052734 -2.64575195 17.53052734 -2.64575195 22.29052734 C12.86424805 22.29052734 28.37424805 22.29052734 44.35424805 22.29052734 C44.35424805 17.67052734 44.35424805 13.05052734 44.35424805 8.29052734 C41.67433834 5.61061763 39.62237307 6.04106745 35.97915649 6.01263428 C35.10520233 6.01668274 34.23124817 6.0207312 33.33081055 6.02490234 C32.43308929 6.02298889 31.53536804 6.02107544 30.61044312 6.019104 C28.70896118 6.01774148 26.80746998 6.02144259 24.90600586 6.02978516 C21.99791462 6.04045883 19.09044467 6.02990507 16.18237305 6.01708984 C14.33601752 6.01841192 12.48966237 6.0209753 10.64331055 6.02490234 C9.77340485 6.02085388 8.90349915 6.01680542 8.00723267 6.01263428 C7.19313934 6.0189386 6.37904602 6.02524292 5.5402832 6.03173828 C4.82683746 6.03332947 4.11339172 6.03492065 3.37832642 6.03656006 C0.91878859 6.231273 0.91878859 6.231273 -2.64575195 8.29052734 Z " fill="#2A4E79" transform="translate(230.645751953125,75.70947265625)"/>
<path d="M0 0 C1.44709099 -0.01913956 1.44709099 -0.01913956 2.92341614 -0.03866577 C3.96922348 -0.04089142 5.01503082 -0.04311707 6.0925293 -0.04541016 C7.7019062 -0.05539536 7.7019062 -0.05539536 9.34379578 -0.06558228 C11.61768882 -0.07572266 13.89161171 -0.08039887 16.16552734 -0.08007812 C19.64234702 -0.08444203 23.11788831 -0.12072279 26.59448242 -0.15869141 C28.80216037 -0.16456111 31.00984435 -0.16852947 33.2175293 -0.17041016 C34.25726395 -0.18478119 35.2969986 -0.19915222 36.36824036 -0.21395874 C40.8365478 -0.18573547 43.58382916 -0.15886872 47.5 2.12548828 C51.80649066 7.15379101 50.50672616 15.33640253 50.47924805 21.66552734 C50.48504883 23.03644531 50.48504883 23.03644531 50.4909668 24.43505859 C50.48967773 25.30259766 50.48838867 26.17013672 50.48706055 27.06396484 C50.48593262 27.85206543 50.48480469 28.64016602 50.48364258 29.45214844 C50.35424805 31.29052734 50.35424805 31.29052734 49.35424805 32.29052734 C47.7791447 32.37863508 46.20009709 32.39744798 44.62255859 32.38818359 C43.61448654 32.38488037 42.60641449 32.38157715 41.5677948 32.37817383 C40.46994156 32.36987549 39.37208832 32.36157715 38.2409668 32.35302734 C37.11987015 32.34924072 35.9987735 32.3454541 34.84370422 32.34155273 C30.02596679 32.32513717 25.20831254 32.29707976 20.390625 32.27001953 C16.88240957 32.25196167 13.3742079 32.23984654 9.8659668 32.22802734 C8.22829597 32.21557983 8.22829597 32.21557983 6.55754089 32.20288086 C5.54001236 32.19957764 4.52248383 32.19627441 3.47412109 32.19287109 C2.58001022 32.18763428 1.68589935 32.18239746 0.76469421 32.17700195 C-1.63123035 32.2073004 -1.63123035 32.2073004 -3.82511902 32.85522461 C-6.33009674 33.4541502 -7.50493752 32.59030753 -9.64575195 31.29052734 C-9.73307921 27.39483599 -9.78625381 23.49939752 -9.83325195 19.60302734 C-9.85838867 18.50023438 -9.88352539 17.39744141 -9.90942383 16.26123047 C-9.9190918 15.19453125 -9.92875977 14.12783203 -9.9387207 13.02880859 C-9.95443115 12.04952393 -9.9701416 11.07023926 -9.98632812 10.0612793 C-9.23347637 3.93646602 -6.15561928 0.05514724 0 0 Z M-3.64575195 1.29052734 C-3.31575195 2.61052734 -2.98575195 3.93052734 -2.64575195 5.29052734 C-1.32575195 5.62052734 -0.00575195 5.95052734 1.35424805 6.29052734 C-0.62575195 7.28052734 -0.62575195 7.28052734 -2.64575195 8.29052734 C-2.64575195 12.91052734 -2.64575195 17.53052734 -2.64575195 22.29052734 C12.53424805 22.29052734 27.71424805 22.29052734 43.35424805 22.29052734 C43.84924805 23.28052734 43.84924805 23.28052734 44.35424805 24.29052734 C27.52424805 24.29052734 10.69424805 24.29052734 -6.64575195 24.29052734 C-6.64575195 25.94052734 -6.64575195 27.59052734 -6.64575195 29.29052734 C11.50424805 29.62052734 29.65424805 29.95052734 48.35424805 30.29052734 C48.35424805 22.04052734 48.35424805 13.79052734 48.35424805 5.29052734 C44.99984531 1.20596467 44.99984531 1.20596467 42.05096436 0.80950928 C40.78521576 0.82283295 40.78521576 0.82283295 39.49389648 0.83642578 C38.53320251 0.83672791 37.57250854 0.83703003 36.58270264 0.83734131 C35.55340637 0.85798645 34.52411011 0.87863159 33.46362305 0.89990234 C32.40387268 0.90556213 31.34412231 0.91122192 30.2522583 0.91705322 C26.86912777 0.93943494 23.48705821 0.98963636 20.10424805 1.04052734 C17.80999251 1.06058995 15.51572037 1.07884113 13.22143555 1.09521484 C7.59867802 1.13930555 1.97653883 1.20623599 -3.64575195 1.29052734 Z " fill="#8D9EB1" transform="translate(230.645751953125,75.70947265625)"/>
<path d="M0 0 C3.47293842 3.47293842 3.43164392 4.1784248 3.4375 8.875 C3.34507865 12.89776075 3.19644127 14.66604984 1.125 18.1875 C-2.64874328 21.40628103 -5.74932914 21.1413485 -10.50938416 21.12698364 C-11.68483546 21.12932363 -11.68483546 21.12932363 -12.88403326 21.13171089 C-15.52418878 21.13571687 -18.16428735 21.13253277 -20.80444336 21.12939453 C-22.69147272 21.13074876 -24.57850181 21.13252882 -26.4655304 21.13470459 C-31.60181979 21.13927665 -36.73808916 21.1374902 -41.87437892 21.1343255 C-47.24084322 21.13180037 -52.60730577 21.13413991 -57.97377014 21.13571167 C-66.98829456 21.13753307 -76.0028108 21.13512799 -85.01733398 21.13037109 C-95.44875842 21.12493018 -105.88016331 21.12669001 -116.31158727 21.1321975 C-125.25597582 21.13673143 -134.20035847 21.13737775 -143.14474779 21.13475883 C-148.49194284 21.13319739 -153.8391287 21.13299864 -159.18632317 21.13629532 C-164.2136203 21.13917802 -169.24089217 21.13719094 -174.26818657 21.13140106 C-176.11653094 21.13007555 -177.96487744 21.13046407 -179.81322098 21.13266373 C-182.3300537 21.13538341 -184.84680473 21.13198397 -187.3636322 21.12698364 C-188.10059151 21.12921436 -188.83755082 21.13144509 -189.59684223 21.13374341 C-192.67683104 21.12181881 -195.05345912 20.98218029 -198 20 C-197.67 19.34 -197.34 18.68 -197 18 C-195.5590917 18.00276538 -195.5590917 18.00276538 -194.08907413 18.00558662 C-170.70267238 18.05000906 -147.3162761 18.08286262 -123.92984104 18.10362434 C-112.62028566 18.11393172 -101.31075818 18.12798179 -90.0012207 18.15087891 C-80.14247762 18.17082923 -70.28375474 18.18372035 -60.42499202 18.18817699 C-55.20610391 18.19078157 -49.98727358 18.19689235 -44.76840401 18.21146011 C-39.85272805 18.22506993 -34.93713351 18.22921576 -30.02144051 18.22621536 C-28.22076474 18.226764 -26.42008616 18.23072113 -24.61942673 18.23841095 C-12.17827035 18.33272266 -12.17827035 18.33272266 0 16 C0 10.72 0 5.44 0 0 Z " fill="#8CA0B5" transform="translate(350,188)"/>
<path d="M0 0 C1.05785962 0.00436926 1.05785962 0.00436926 2.13709015 0.00882679 C2.8811511 0.00797237 3.62521206 0.00711794 4.39182031 0.00623763 C6.9038936 0.0045806 9.41590123 0.0101078 11.92796844 0.01555592 C13.72119658 0.01583777 15.51442482 0.0156801 17.30765289 0.01511341 C22.19174545 0.01482535 27.07581368 0.02072345 31.95990056 0.02768737 C37.0581776 0.0339195 42.15645514 0.0345246 47.25473541 0.03571278 C56.91618339 0.03882651 66.57762013 0.04704047 76.23906314 0.05706227 C87.23524803 0.0682221 98.23143344 0.07373353 109.22762257 0.0787577 C131.85422523 0.08922305 154.48081789 0.1068233 177.1074118 0.12908131 C178.28022058 4.88720475 177.64192102 6.93793865 175.3574118 11.31658131 C174.82631805 12.362011 174.2952243 13.40744068 173.7480368 14.48455006 C172.1074118 17.12908131 172.1074118 17.12908131 169.1074118 19.12908131 C170.26386083 16.81618325 171.43465955 14.52694545 172.6699118 12.25408131 C174.43683273 8.77355439 174.43683273 8.77355439 175.1074118 3.12908131 C86.5024118 2.63408131 86.5024118 2.63408131 -3.8925882 2.12908131 C-4.2225882 3.44908131 -4.5525882 4.76908131 -4.8925882 6.12908131 C-5.27477587 4.47293474 -5.60653922 2.80451107 -5.8925882 1.12908131 C-4.22991296 -0.53359393 -2.22073027 0.00695251 0 0 Z " fill="#C9D2DC" transform="translate(164.89258819818497,388.8709186911583)"/>
<path d="M0 0 C0.33 0.99 0.66 1.98 1 3 C60.4 3 119.8 3 181 3 C181.33 2.01 181.66 1.02 182 0 C182.5625 1.9375 182.5625 1.9375 183 4 C181.33732477 5.66267523 179.32814207 5.1221288 177.1074118 5.12908131 C176.40217205 5.12616847 175.69693231 5.12325563 174.97032166 5.12025452 C173.85423022 5.12153615 173.85423022 5.12153615 172.71559149 5.12284368 C170.2035182 5.12450071 167.69151058 5.1189735 165.17944336 5.11352539 C163.38621523 5.11324354 161.59298698 5.11340121 159.79975891 5.1139679 C154.91566635 5.11425596 150.03159813 5.10835786 145.14751124 5.10139394 C140.0492342 5.09516181 134.95095666 5.09455671 129.85267639 5.09336853 C120.19122841 5.0902548 110.52979168 5.08204084 100.86834866 5.07201904 C89.87216377 5.06085921 78.87597837 5.05534778 67.87978923 5.05032361 C45.25318657 5.03985826 22.62659392 5.02225801 0 5 C-0.33 4.01 -0.66 3.02 -1 2 C-0.67 1.34 -0.34 0.68 0 0 Z " fill="#CED7E2" transform="translate(160,172)"/>
<path d="M0 0 C1.44709099 -0.01913956 1.44709099 -0.01913956 2.92341614 -0.03866577 C3.96922348 -0.04089142 5.01503082 -0.04311707 6.0925293 -0.04541016 C7.7019062 -0.05539536 7.7019062 -0.05539536 9.34379578 -0.06558228 C11.61768882 -0.07572266 13.89161171 -0.08039887 16.16552734 -0.08007812 C19.64234702 -0.08444203 23.11788831 -0.12072279 26.59448242 -0.15869141 C28.80216037 -0.16456111 31.00984435 -0.16852947 33.2175293 -0.17041016 C34.25726395 -0.18478119 35.2969986 -0.19915222 36.36824036 -0.21395874 C40.8365478 -0.18573547 43.58382916 -0.15886872 47.5 2.12548828 C51.80649066 7.15379101 50.50672616 15.33640253 50.47924805 21.66552734 C50.48504883 23.03644531 50.48504883 23.03644531 50.4909668 24.43505859 C50.48967773 25.30259766 50.48838867 26.17013672 50.48706055 27.06396484 C50.48593262 27.85206543 50.48480469 28.64016602 50.48364258 29.45214844 C50.35424805 31.29052734 50.35424805 31.29052734 49.35424805 32.29052734 C47.7791447 32.37863508 46.20009709 32.39744798 44.62255859 32.38818359 C43.61448654 32.38488037 42.60641449 32.38157715 41.5677948 32.37817383 C40.46994156 32.36987549 39.37208832 32.36157715 38.2409668 32.35302734 C37.11987015 32.34924072 35.9987735 32.3454541 34.84370422 32.34155273 C30.02596679 32.32513717 25.20831254 32.29707976 20.390625 32.27001953 C16.88240957 32.25196167 13.3742079 32.23984654 9.8659668 32.22802734 C8.22829597 32.21557983 8.22829597 32.21557983 6.55754089 32.20288086 C5.54001236 32.19957764 4.52248383 32.19627441 3.47412109 32.19287109 C2.58001022 32.18763428 1.68589935 32.18239746 0.76469421 32.17700195 C-1.63123035 32.2073004 -1.63123035 32.2073004 -3.82511902 32.85522461 C-6.33009674 33.4541502 -7.50493752 32.59030753 -9.64575195 31.29052734 C-9.73307921 27.39483599 -9.78625381 23.49939752 -9.83325195 19.60302734 C-9.85838867 18.50023438 -9.88352539 17.39744141 -9.90942383 16.26123047 C-9.9190918 15.19453125 -9.92875977 14.12783203 -9.9387207 13.02880859 C-9.95443115 12.04952393 -9.9701416 11.07023926 -9.98632812 10.0612793 C-9.23347637 3.93646602 -6.15561928 0.05514724 0 0 Z M-7.64575195 5.29052734 C-7.64575195 13.54052734 -7.64575195 21.79052734 -7.64575195 30.29052734 C10.83424805 30.29052734 29.31424805 30.29052734 48.35424805 30.29052734 C48.35424805 22.04052734 48.35424805 13.79052734 48.35424805 5.29052734 C44.43844594 1.06872947 44.43844594 1.06872947 39.55737305 0.77294922 C38.60958984 0.76034058 37.66180664 0.74773193 36.68530273 0.73474121 C35.66855469 0.74283813 34.65180664 0.75093506 33.60424805 0.75927734 C32.55398438 0.75545044 31.5037207 0.75162354 30.42163086 0.74768066 C28.20254558 0.74496039 25.9834283 0.75232958 23.7644043 0.76904297 C20.36654209 0.79044989 16.97079444 0.76924409 13.57299805 0.74365234 C11.41674338 0.7462956 9.26049002 0.75142052 7.10424805 0.75927734 C5.57912598 0.74713196 5.57912598 0.74713196 4.02319336 0.73474121 C3.07541016 0.74734985 2.12762695 0.7599585 1.15112305 0.77294922 C0.31935547 0.77613159 -0.51241211 0.77931396 -1.36938477 0.78259277 C-4.29106216 1.22098085 -4.29106216 1.22098085 -7.64575195 5.29052734 Z " fill="#CFD8E4" transform="translate(230.645751953125,75.70947265625)"/>
<path d="M0 0 C6.76256512 -0.10138675 13.52493439 -0.17145971 20.28808594 -0.21972656 C22.58894169 -0.23984688 24.88974629 -0.26714634 27.19042969 -0.30175781 C30.49687317 -0.35025612 33.80264085 -0.37296478 37.109375 -0.390625 C38.13867126 -0.41127014 39.16796753 -0.43191528 40.22845459 -0.45318604 C47.3448328 -0.45542403 47.3448328 -0.45542403 50.66503906 1.85253906 C52.27047826 4.43509999 52.33208761 6.0112115 52 9 C51.67 9 51.34 9 51 9 C50.95101562 9.85464844 50.90203125 10.70929688 50.8515625 11.58984375 C50.77679688 12.69457031 50.70203125 13.79929687 50.625 14.9375 C50.55539062 16.03964844 50.48578125 17.14179687 50.4140625 18.27734375 C50.27742188 19.17582031 50.14078125 20.07429688 50 21 C49.01 21.495 49.01 21.495 48 22 C47.93941406 20.95199219 47.87882812 19.90398437 47.81640625 18.82421875 C47.73198262 17.44529952 47.64733553 16.06639395 47.5625 14.6875 C47.52318359 13.99720703 47.48386719 13.30691406 47.44335938 12.59570312 C47.25072585 9.52838465 46.97677283 6.93031848 46 4 C31.15 4 16.3 4 1 4 C0.67 2.68 0.34 1.36 0 0 Z " fill="#3A5273" transform="translate(227,77)"/>
<path d="M0 0 C59.73 0 119.46 0 181 0 C180.34 0.33 179.68 0.66 179 1 C179 2.65 179 4.3 179 6 C178.01 5.01 178.01 5.01 177 4 C177 3.01 177 2.02 177 1 C119.58 1 62.16 1 3 1 C3 2.32 3 3.64 3 5 C2.01 4.67 1.02 4.34 0 4 C0 2.68 0 1.36 0 0 Z " fill="#2B4567" transform="translate(161,391)"/>
<path d="M0 0 C7.26 0 14.52 0 22 0 C22 36.63 22 73.26 22 111 C20.515 110.01 20.515 110.01 19 109 C19.33 108.67 19.66 108.34 20 108 C20.10741771 106.63438234 20.14678988 105.26332757 20.15821838 103.89353943 C20.17290161 102.56624817 20.17290161 102.56624817 20.18788147 101.21214294 C20.19363693 100.23391068 20.1993924 99.25567841 20.20532227 98.24780273 C20.21522186 97.2235318 20.22512146 96.19926086 20.23532104 95.14395142 C20.26704171 91.7405228 20.29173507 88.33708019 20.31640625 84.93359375 C20.33696666 82.58089321 20.35796288 80.22819644 20.37937927 77.87550354 C20.43469424 71.66947474 20.48406181 65.46341208 20.53222656 59.25732422 C20.58237295 52.92998221 20.63809475 46.60268963 20.69335938 40.27539062 C20.80105615 27.8503026 20.90247537 15.42517174 21 3 C20.34 3 19.68 3 19 3 C19 2.34 19 1.68 19 1 C12.73 1 6.46 1 0 1 C0 0.67 0 0.34 0 0 Z " fill="#2D496D" transform="translate(320,220)"/>
<path d="M0 0 C2 2 2 2 2.22705078 4.06298828 C2.21657715 4.89040527 2.20610352 5.71782227 2.1953125 6.5703125 C2.18886719 7.46621094 2.18242187 8.36210938 2.17578125 9.28515625 C2.15902344 10.22230469 2.14226562 11.15945312 2.125 12.125 C2.11597656 13.06988281 2.10695313 14.01476562 2.09765625 14.98828125 C2.07404522 17.32577292 2.04111516 19.66276123 2 22 C-0.31 21.67 -2.62 21.34 -5 21 C-4.34 19.68 -3.68 18.36 -3 17 C-18.84 17 -34.68 17 -51 17 C-51 16.67 -51 16.34 -51 16 C-50.38834488 15.98969254 -49.77668976 15.97938507 -49.14649963 15.96876526 C-42.80417684 15.86093255 -36.46200286 15.74631658 -30.11987305 15.62768555 C-27.75011292 15.5842619 -25.38032 15.54259251 -23.01049805 15.50268555 C-19.61236667 15.44516232 -16.21440157 15.38141697 -12.81640625 15.31640625 C-11.74975235 15.29969376 -10.68309845 15.28298126 -9.5841217 15.26576233 C-8.60318039 15.24581711 -7.62223907 15.22587189 -6.61157227 15.20532227 C-5.74331314 15.18977798 -4.87505402 15.1742337 -3.98048401 15.15821838 C-1.99919221 15.21537575 -1.99919221 15.21537575 -1 14 C-0.76472227 11.65012738 -0.58613583 9.29443961 -0.4375 6.9375 C-0.35371094 5.64714844 -0.26992188 4.35679688 -0.18359375 3.02734375 C-0.09271484 1.52880859 -0.09271484 1.52880859 0 0 Z " fill="#2A476B" transform="translate(277,84)"/>
<path d="M0 0 C3.875 1.875 3.875 1.875 5 3 C6.10313033 8.79531848 6.15055238 14.48943496 6.125 20.375 C6.13080078 21.74591797 6.13080078 21.74591797 6.13671875 23.14453125 C6.13542969 24.01207031 6.13414062 24.87960938 6.1328125 25.7734375 C6.13168457 26.56153809 6.13055664 27.34963867 6.12939453 28.16162109 C6 30 6 30 5 31 C-0.39881588 31.34568689 -5.69982429 31.11582647 -11 30 C-11 29.67 -11 29.34 -11 29 C-6.05 29 -1.1 29 4 29 C3.91316199 24.91561915 3.80628369 20.83346956 3.6875 16.75 C3.66494141 15.59113281 3.64238281 14.43226562 3.61914062 13.23828125 C3.58369141 12.12324219 3.54824219 11.00820312 3.51171875 9.859375 C3.48553467 8.83295898 3.45935059 7.80654297 3.43237305 6.74902344 C2.95100114 3.68846573 2.04762948 2.27885191 0 0 Z " fill="#C4CEDA" transform="translate(275,77)"/>
<path d="M0 0 C3 3 3 3 3.36328125 5.8125 C3.34652344 6.864375 3.32976562 7.91625 3.3125 9 C3.30863281 10.051875 3.30476563 11.10375 3.30078125 12.1875 C3 15 3 15 1 18 C-3.07971125 20.20894499 -6.68779917 20.23302223 -11.26953125 20.1953125 C-11.95053391 20.1924826 -12.63153656 20.18965271 -13.33317566 20.18673706 C-15.49313455 20.17560525 -17.65266794 20.15051457 -19.8125 20.125 C-21.28319711 20.11496111 -22.75390076 20.10583685 -24.22460938 20.09765625 C-27.81654286 20.07568913 -31.40822985 20.0412082 -35 20 C-35 19.67 -35 19.34 -35 19 C-33.88927124 18.970271 -33.88927124 18.970271 -32.75610352 18.93994141 C-29.35791589 18.84390394 -25.9602779 18.73454684 -22.5625 18.625 C-21.39783203 18.5940625 -20.23316406 18.563125 -19.03320312 18.53125 C-12.42539077 18.30788733 -6.39778039 17.68326628 0 16 C0 10.72 0 5.44 0 0 Z " fill="#73879F" transform="translate(350,188)"/>
<path d="M0 0 C0.86625 0.804375 1.7325 1.60875 2.625 2.4375 C5.64278672 4.96185714 8.00150151 5.81825007 12 6 C12.66 5.67 13.32 5.34 14 5 C14 5.66 14 6.32 14 7 C14.66 7.33 15.32 7.66 16 8 C16 8.99 16 9.98 16 11 C17.32 11.33 18.64 11.66 20 12 C19.34 12 18.68 12 18 12 C18 12.66 18 13.32 18 14 C13.91737344 13.45997003 11.62024558 12.27244293 8.4375 9.6875 C7.69371094 9.09324219 6.94992188 8.49898438 6.18359375 7.88671875 C4.00582116 6.00502974 1.93693425 4.13018846 0 2 C0 1.34 0 0.68 0 0 Z " fill="#365278" transform="translate(166,405)"/>
<path d="M0 0 C0.99 0 1.98 0 3 0 C3.45445803 4.63547188 3.60446764 7.94218162 1.25 12.0625 C-3.6705084 14.99588 -8.40910614 14.40126033 -14 14 C-14 13.67 -14 13.34 -14 13 C-13.37351562 12.95101563 -12.74703125 12.90203125 -12.1015625 12.8515625 C-11.28429687 12.77679688 -10.46703125 12.70203125 -9.625 12.625 C-8.81289063 12.55539062 -8.00078125 12.48578125 -7.1640625 12.4140625 C-4.79665809 12.17107412 -4.79665809 12.17107412 -3 10 C-2.67 10 -2.34 10 -2 10 C-1.67 8.35 -1.34 6.7 -1 5 C-1.66 4.67 -2.32 4.34 -3 4 C-1.6875 2 -1.6875 2 0 0 Z " fill="#2F4C6F" transform="translate(349,365)"/>
<path d="M0 0 C14.85 0 29.7 0 45 0 C45 0.33 45 0.66 45 1 C30.48 1 15.96 1 1 1 C1 2.98 1 4.96 1 7 C0 9.875 0 9.875 -1 12 C-2.47006623 7.58980132 -1.43537323 4.30611969 0 0 Z " fill="#EEFCFF" transform="translate(228,115)"/>
<path d="M0 0 C-2 2 -2 2 -5.125 2.125 C-6.07375 2.08375 -7.0225 2.0425 -8 2 C-7.96519531 2.97582031 -7.93039063 3.95164062 -7.89453125 4.95703125 C-7.86746094 6.22933594 -7.84039062 7.50164062 -7.8125 8.8125 C-7.77769531 10.07707031 -7.74289063 11.34164063 -7.70703125 12.64453125 C-8 16 -8 16 -9.34375 17.9375 C-11.6159092 19.39511156 -13.35930275 19.21411059 -16 19 C-16 18.34 -16 17.68 -16 17 C-14.02 16.67 -12.04 16.34 -10 16 C-10 11.05 -10 6.1 -10 1 C-3.25 -1.25 -3.25 -1.25 0 0 Z " fill="#8090A4" transform="translate(168,341)"/>
<path d="M0 0 C14.19 0 28.38 0 43 0 C42.67 0.66 42.34 1.32 42 2 C29.79 2 17.58 2 5 2 C4.67 2.66 4.34 3.32 4 4 C1.9375 4.625 1.9375 4.625 0 5 C0 3.35 0 1.7 0 0 Z " fill="#29486B" transform="translate(229,117)"/>
<path d="M0 0 C2 1.1875 2 1.1875 4 3 C4.25 5.6875 4.25 5.6875 4 8 C3.67 8 3.34 8 3 8 C2.95101563 8.85464844 2.90203125 9.70929688 2.8515625 10.58984375 C2.77679688 11.69457031 2.70203125 12.79929687 2.625 13.9375 C2.55539062 15.03964844 2.48578125 16.14179687 2.4140625 17.27734375 C2.27742188 18.17582031 2.14078125 19.07429688 2 20 C1.34 20.33 0.68 20.66 0 21 C-0.06058594 19.95199219 -0.12117188 18.90398437 -0.18359375 17.82421875 C-0.26801738 16.44529952 -0.35266447 15.06639395 -0.4375 13.6875 C-0.47681641 12.99720703 -0.51613281 12.30691406 -0.55664062 11.59570312 C-0.74927415 8.52838465 -1.02322717 5.93031848 -2 3 C-1.34 2.01 -0.68 1.02 0 0 Z " fill="#4D6583" transform="translate(275,78)"/>
<path d="M0 0 C0.66 0 1.32 0 2 0 C2.33 1.32 2.66 2.64 3 4 C2.34 4 1.68 4 1 4 C1.33 7.63 1.66 11.26 2 15 C3.32 15.33 4.64 15.66 6 16 C6 16.99 6 17.98 6 19 C3.0625 18.625 3.0625 18.625 0 18 C-1.48619895 15.02760209 -1.13177009 12.30380422 -1.125 9 C-1.12757813 7.741875 -1.13015625 6.48375 -1.1328125 5.1875 C-1 2 -1 2 0 0 Z " fill="#74889F" transform="translate(150,188)"/>
<path d="M0 0 C8.29148015 1.63623444 13.2221036 8.14133357 17.84765625 14.73046875 C18.22792969 15.47941406 18.60820312 16.22835937 19 17 C18.67 17.99 18.34 18.98 18 20 C17.773125 19.38125 17.54625 18.7625 17.3125 18.125 C15.61044153 15.36928629 13.97290314 15.11483868 11 14 C10.34 13.01 9.68 12.02 9 11 C9.99 10.67 10.98 10.34 12 10 C8.05692685 6.59100304 4.09529452 3.22659568 0 0 Z " fill="#A6B5C6" transform="translate(322,152)"/>
<path d="M0 0 C1.32 0.33 2.64 0.66 4 1 C2.625 2.5 2.625 2.5 1 4 C0.34 4 -0.32 4 -1 4 C-1 4.66 -1 5.32 -1 6 C-2.64453125 7.2890625 -2.64453125 7.2890625 -4.8125 8.625 C-5.52019531 9.07101562 -6.22789062 9.51703125 -6.95703125 9.9765625 C-9 11 -9 11 -12 11 C-12 10.01 -12 9.02 -12 8 C-11.360625 7.896875 -10.72125 7.79375 -10.0625 7.6875 C-9.381875 7.460625 -8.70125 7.23375 -8 7 C-7.67 6.01 -7.34 5.02 -7 4 C-5.68 4 -4.36 4 -3 4 C-1.22590192 2.07977297 -1.22590192 2.07977297 0 0 Z " fill="#8193A9" transform="translate(330,408)"/>
<path d="M0 0 C3.96 0 7.92 0 12 0 C11.53416726 5.90054805 9.09662119 11.02392664 6 16 C5.01 16.66 4.02 17.32 3 18 C4.15644903 15.68710194 5.32724775 13.39786415 6.5625 11.125 C7.99295257 8.01532051 8.59734768 5.38227947 9 2 C6.03 1.67 3.06 1.34 0 1 C0 0.67 0 0.34 0 0 Z " fill="#B9C4D2" transform="translate(331,390)"/>
<path d="M0 0 C-6.07215628 4.20721615 -12.4557829 3.81171512 -19.55859375 2.54296875 C-21.38857165 2.08955177 -23.19805717 1.55444395 -25 1 C-21.84896817 0.01214792 -19.55939329 0.0657933 -16.3125 0.5625 C-11.76914069 1.10770312 -8.19192479 0.62626423 -3.8125 -0.625 C-2 -1 -2 -1 0 0 Z " fill="#ABB9C9" transform="translate(233,340)"/>
<path d="M0 0 C0.66 0.33 1.32 0.66 2 1 C1.34 2.32 0.68 3.64 0 5 C5.28 5.33 10.56 5.66 16 6 C16 6.33 16 6.66 16 7 C9.73 7 3.46 7 -3 7 C-2 3 -2 3 0 0 Z " fill="#2E4B6D" transform="translate(164,168)"/>
<path d="M0 0 C0.86625 0.37125 0.86625 0.37125 1.75 0.75 C1.0625 2.6875 1.0625 2.6875 -0.25 4.75 C-2.875 5.5 -2.875 5.5 -5.25 5.75 C-5.25 8.39 -5.25 11.03 -5.25 13.75 C-5.58 13.75 -5.91 13.75 -6.25 13.75 C-6.87145499 4.70437731 -6.87145499 4.70437731 -4.5 1.0625 C-2.25 -0.25 -2.25 -0.25 0 0 Z " fill="#334F71" transform="translate(156.25,359.25)"/>
<path d="M0 0 C0.99 0.33 1.98 0.66 3 1 C2.34 3.31 1.68 5.62 1 8 C-0.98 8 -2.96 8 -5 8 C-3.8141763 4.62496331 -2.72426311 2.35277269 0 0 Z " fill="#2E4C74" transform="translate(170,159)"/>
<path d="M0 0 C-0.66644531 -0.02320313 -1.33289063 -0.04640625 -2.01953125 -0.0703125 C-8.91756737 -0.20537894 -15.26300148 0.54053417 -22 2 C-22 1.01 -22 0.02 -22 -1 C-6.37571786 -3.77765016 -6.37571786 -3.77765016 0 0 Z " fill="#B8C5D6" transform="translate(260,323)"/>
<path d="M0 0 C-1.65 0.66 -3.3 1.32 -5 2 C-5 2.66 -5 3.32 -5 4 C-8.4019487 6.09350689 -11.05272412 6.17942163 -15 6 C-12.74109621 3.48045346 -10.582103 2.12667267 -7.5 0.75 C-6.7265625 0.39421875 -5.953125 0.0384375 -5.15625 -0.328125 C-3 -1 -3 -1 0 0 Z " fill="#96A5B9" transform="translate(191,148)"/>
<path d="M0 0 C0.99 0.99 1.98 1.98 3 3 C2.67 3.66 2.34 4.32 2 5 C1.7677354 7.71262116 1.58063765 10.40773126 1.4375 13.125 C1.39431641 13.87910156 1.35113281 14.63320312 1.30664062 15.41015625 C1.2005168 17.27321888 1.09974999 19.13658524 1 21 C0.67 21 0.34 21 0 21 C-0.33 15.72 -0.66 10.44 -1 5 C-1.66 5 -2.32 5 -3 5 C-1.125 1.125 -1.125 1.125 0 0 Z " fill="#4F6886" transform="translate(226,78)"/>
<path d="M0 0 C0.33 0 0.66 0 1 0 C1 5.61 1 11.22 1 17 C-4 18 -4 18 -6 18 C-6 17.34 -6 16.68 -6 16 C-4.02 15.67 -2.04 15.34 0 15 C0 10.05 0 5.1 0 0 Z " fill="#CAD7E5" transform="translate(158,342)"/>
<path d="M0 0 C5.15464734 0.48324819 8.81550319 3.18610761 13 6 C11 7 11 7 8 6.25 C5 5 5 5 3 2 C2.01 1.34 1.02 0.68 0 0 Z " fill="#9DADC0" transform="translate(258,333)"/>
<path d="M0 0 C0.43570313 0.40992188 0.87140625 0.81984375 1.3203125 1.2421875 C5.04362634 4.61090002 8.00785965 6.78240479 13 8 C12.67 8.99 12.34 9.98 12 11 C6.80546349 9.58330822 3.33817117 6.07891809 0 2 C0 1.34 0 0.68 0 0 Z " fill="#B5C2D0" transform="translate(166,405)"/>
<path d="M0 0 C0 0.99 0 1.98 0 3 C-2.64 3.66 -5.28 4.32 -8 5 C-8 5.66 -8 6.32 -8 7 C-9.32 6.67 -10.64 6.34 -12 6 C-10.56839732 4.99157547 -9.12948547 3.99352109 -7.6875 3 C-6.88699219 2.443125 -6.08648437 1.88625 -5.26171875 1.3125 C-3 0 -3 0 0 0 Z " fill="#A8B9C9" transform="translate(180,333)"/>
<path d="M0 0 C0 3 0 3 -1 5 C-0.34 5.33 0.32 5.66 1 6 C-2.87132028 5.42647107 -5.08172796 3.51295648 -8 1 C-5.36 0.67 -2.72 0.34 0 0 Z " fill="#8496AC" transform="translate(335,323)"/>
<path d="M0 0 C0.99 0.66 1.98 1.32 3 2 C2.67 3.65 2.34 5.3 2 7 C1.34 7 0.68 7 0 7 C-0.33 7.66 -0.66 8.32 -1 9 C-1.99 8.67 -2.98 8.34 -4 8 C-1.25 4.125 -1.25 4.125 1 3 C0.67 2.01 0.34 1.02 0 0 Z " fill="#517096" transform="translate(349,359)"/>
<path d="M0 0 C1.1446875 0.2784375 1.1446875 0.2784375 2.3125 0.5625 C5.08967375 1.22819173 5.08967375 1.22819173 8 0 C8 0.66 8 1.32 8 2 C4.86501708 3.85776765 2.62528568 4.20140476 -1 4 C-0.67 2.68 -0.34 1.36 0 0 Z " fill="#8092AB" transform="translate(162,327)"/>
<path d="M0 0 C2.125 0.9375 2.125 0.9375 4 2 C1.75 3.625 1.75 3.625 -1 5 C-3.3125 4.1875 -3.3125 4.1875 -5 3 C-2 1 -2 1 0 0 Z " fill="#798CA8" transform="translate(174,322)"/>
<path d="M0 0 C1.32 0.33 2.64 0.66 4 1 C3.01 1 2.02 1 1 1 C1.04125 1.886875 1.0825 2.77375 1.125 3.6875 C1.00102754 6.97277013 0.38612096 9.05449295 -1 12 C-2.47006623 7.58980132 -1.43537323 4.30611969 0 0 Z " fill="#E4EFF5" transform="translate(228,115)"/>
<path d="M0 0 C2.97 0 5.94 0 9 0 C9 0.33 9 0.66 9 1 C7.02 1 5.04 1 3 1 C3 2.32 3 3.64 3 5 C2.01 4.67 1.02 4.34 0 4 C0 2.68 0 1.36 0 0 Z " fill="#324C6C" transform="translate(161,391)"/>
<path d="M0 0 C0.33 0.66 0.66 1.32 1 2 C3.02463255 2.65213292 3.02463255 2.65213292 5 3 C4.34 3 3.68 3 3 3 C3 3.66 3 4.32 3 5 C0.5625 4.625 0.5625 4.625 -2 4 C-2.33 3.34 -2.66 2.68 -3 2 C-2.01 1.34 -1.02 0.68 0 0 Z " fill="#8293A8" transform="translate(181,414)"/>
<path d="M0 0 C-2.71182212 2.60334924 -3.89133813 2.99456691 -7.75 3.1875 C-8.8225 3.125625 -9.895 3.06375 -11 3 C-7.72430636 -0.27569364 -4.48909309 -0.12469703 0 0 Z " fill="#3F5B79" transform="translate(350,205)"/>
<path d="M0 0 C0.33 1.32 0.66 2.64 1 4 C-1.97 3.505 -1.97 3.505 -5 3 C-5.33 2.01 -5.66 1.02 -6 0 C-3.50907189 -1.24546405 -2.58919267 -0.7767578 0 0 Z " fill="#344F70" transform="translate(350,188)"/>
<path d="M0 0 C1.16959987 0.97566112 2.33561177 1.955625 3.5 2.9375 C4.1496875 3.48277344 4.799375 4.02804688 5.46875 4.58984375 C5.9740625 5.05519531 6.479375 5.52054688 7 6 C7 6.33 7 6.66 7 7 C5.35 7 3.7 7 2 7 C1.34 4.69 0.68 2.38 0 0 Z " fill="#6F889E" transform="translate(278,130)"/>
<path d="M0 0 C3 3.625 3 3.625 3 7 C1.68 6.67 0.36 6.34 -1 6 C-0.67 4.02 -0.34 2.04 0 0 Z " fill="#3A5070" transform="translate(338,168)"/>
<path d="M0 0 C2.64 0.99 5.28 1.98 8 3 C7.34 3.66 6.68 4.32 6 5 C3.375 4.625 3.375 4.625 1 4 C0.67 2.68 0.34 1.36 0 0 Z " fill="#37506F" transform="translate(286,137)"/>
</svg>
